<svg width="150" height="24" viewBox="0 0 150 24" fill="none" xmlns="http://www.w3.org/2000/svg">
<path d="M21 15.9999V7.9999C20.9996 7.64918 20.9071 7.30471 20.7315 7.00106C20.556 6.69742 20.3037 6.44526 20 6.2699L13 2.2699C12.696 2.09437 12.3511 2.00195 12 2.00195C11.6489 2.00195 11.304 2.09437 11 2.2699L4 6.2699C3.69626 6.44526 3.44398 6.69742 3.26846 7.00106C3.09294 7.30471 3.00036 7.64918 3 7.9999V15.9999C3.00036 16.3506 3.09294 16.6951 3.26846 16.9987C3.44398 17.3024 3.69626 17.5545 4 17.7299L11 21.7299C11.304 21.9054 11.6489 21.9979 12 21.9979C12.3511 21.9979 12.696 21.9054 13 21.7299L20 17.7299C20.3037 17.5545 20.556 17.3024 20.7315 16.9987C20.9071 16.6951 20.9996 16.3506 21 15.9999Z" stroke="#4A304D" stroke-linecap="round" stroke-linejoin="round"/>
<path d="M7.5 4.20996L12 6.80996L16.5 4.20996" stroke="#4A304D" stroke-linecap="round" stroke-linejoin="round"/>
<path d="M7.5 19.79V14.6L3 12" stroke="#4A304D" stroke-linecap="round" stroke-linejoin="round"/>
<path d="M21 12L16.5 14.6V19.79" stroke="#4A304D" stroke-linecap="round" stroke-linejoin="round"/>
<path d="M3.27002 6.95996L12 12.01L20.73 6.95996" stroke="#376933" stroke-linecap="round" stroke-linejoin="round"/>
<path d="M12 22.08V12" stroke="#376933" stroke-linecap="round" stroke-linejoin="round"/>
<path d="M47.984 16.016H43.792L43.12 18H40.256L44.32 6.768H47.488L51.552 18H48.656L47.984 16.016ZM47.28 13.904L45.888 9.792L44.512 13.904H47.28ZM62.8369 18H60.1009L55.5249 11.072V18H52.7889V6.768H55.5249L60.1009 13.728V6.768H62.8369V18ZM68.8841 18.112C68.0628 18.112 67.3268 17.9787 66.6761 17.712C66.0255 17.4453 65.5028 17.0507 65.1081 16.528C64.7241 16.0053 64.5215 15.376 64.5001 14.64H67.4121C67.4548 15.056 67.5988 15.376 67.8441 15.6C68.0895 15.8133 68.4095 15.92 68.8041 15.92C69.2095 15.92 69.5295 15.8293 69.7641 15.648C69.9988 15.456 70.1161 15.1947 70.1161 14.864C70.1161 14.5867 70.0201 14.3573 69.8281 14.176C69.6468 13.9947 69.4175 13.8453 69.1401 13.728C68.8735 13.6107 68.4895 13.4773 67.9881 13.328C67.2628 13.104 66.6708 12.88 66.2121 12.656C65.7535 12.432 65.3588 12.1013 65.0281 11.664C64.6975 11.2267 64.5321 10.656 64.5321 9.952C64.5321 8.90667 64.9108 8.09067 65.6681 7.504C66.4255 6.90667 67.4121 6.608 68.6281 6.608C69.8655 6.608 70.8628 6.90667 71.6201 7.504C72.3775 8.09067 72.7828 8.912 72.8361 9.968H69.8761C69.8548 9.60533 69.7215 9.32267 69.4761 9.12C69.2308 8.90667 68.9161 8.8 68.5321 8.8C68.2015 8.8 67.9348 8.89067 67.7321 9.072C67.5295 9.24267 67.4281 9.49333 67.4281 9.824C67.4281 10.1867 67.5988 10.4693 67.9401 10.672C68.2815 10.8747 68.8148 11.0933 69.5401 11.328C70.2655 11.5733 70.8521 11.808 71.3001 12.032C71.7588 12.256 72.1535 12.5813 72.4841 13.008C72.8148 13.4347 72.9801 13.984 72.9801 14.656C72.9801 15.296 72.8148 15.8773 72.4841 16.4C72.1641 16.9227 71.6948 17.3387 71.0761 17.648C70.4575 17.9573 69.7268 18.112 68.8841 18.112ZM82.7439 6.768V8.96H79.7679V18H77.0319V8.96H74.0559V6.768H82.7439ZM95.5876 6.768V8.96H92.6116V18H89.8756V8.96H86.8996V6.768H95.5876ZM99.6968 10.56C100.017 10.0693 100.417 9.68533 100.897 9.408C101.377 9.12 101.91 8.976 102.497 8.976V11.872H101.745C101.062 11.872 100.55 12.0213 100.209 12.32C99.8674 12.608 99.6968 13.12 99.6968 13.856V18H96.9608V9.072H99.6968V10.56ZM103.261 13.52C103.261 12.6027 103.431 11.7973 103.773 11.104C104.125 10.4107 104.599 9.87733 105.197 9.504C105.794 9.13067 106.461 8.944 107.197 8.944C107.826 8.944 108.375 9.072 108.845 9.328C109.325 9.584 109.693 9.92 109.949 10.336V9.072H112.685V18H109.949V16.736C109.682 17.152 109.309 17.488 108.829 17.744C108.359 18 107.81 18.128 107.181 18.128C106.455 18.128 105.794 17.9413 105.197 17.568C104.599 17.184 104.125 16.6453 103.773 15.952C103.431 15.248 103.261 14.4373 103.261 13.52ZM109.949 13.536C109.949 12.8533 109.757 12.3147 109.373 11.92C108.999 11.5253 108.541 11.328 107.997 11.328C107.453 11.328 106.989 11.5253 106.605 11.92C106.231 12.304 106.045 12.8373 106.045 13.52C106.045 14.2027 106.231 14.7467 106.605 15.152C106.989 15.5467 107.453 15.744 107.997 15.744C108.541 15.744 108.999 15.5467 109.373 15.152C109.757 14.7573 109.949 14.2187 109.949 13.536ZM114.12 13.536C114.12 12.608 114.307 11.7973 114.68 11.104C115.064 10.4107 115.592 9.87733 116.264 9.504C116.947 9.13067 117.725 8.944 118.6 8.944C119.72 8.944 120.653 9.23733 121.4 9.824C122.157 10.4107 122.653 11.2373 122.888 12.304H119.976C119.731 11.6213 119.256 11.28 118.552 11.28C118.051 11.28 117.651 11.4773 117.352 11.872C117.053 12.256 116.904 12.8107 116.904 13.536C116.904 14.2613 117.053 14.8213 117.352 15.216C117.651 15.6 118.051 15.792 118.552 15.792C119.256 15.792 119.731 15.4507 119.976 14.768H122.888C122.653 15.8133 122.157 16.6347 121.4 17.232C120.643 17.8293 119.709 18.128 118.6 18.128C117.725 18.128 116.947 17.9413 116.264 17.568C115.592 17.1947 115.064 16.6613 114.68 15.968C114.307 15.2747 114.12 14.464 114.12 13.536ZM129.807 18L127.087 14.256V18H124.351V6.16H127.087V12.704L129.791 9.072H133.167L129.455 13.552L133.199 18H129.807ZM142.658 13.392C142.658 13.648 142.642 13.9147 142.61 14.192H136.418C136.461 14.7467 136.637 15.1733 136.946 15.472C137.266 15.76 137.655 15.904 138.114 15.904C138.797 15.904 139.271 15.616 139.538 15.04H142.45C142.301 15.6267 142.029 16.1547 141.634 16.624C141.25 17.0933 140.765 17.4613 140.178 17.728C139.591 17.9947 138.935 18.128 138.21 18.128C137.335 18.128 136.557 17.9413 135.874 17.568C135.191 17.1947 134.658 16.6613 134.274 15.968C133.89 15.2747 133.698 14.464 133.698 13.536C133.698 12.608 133.885 11.7973 134.258 11.104C134.642 10.4107 135.175 9.87733 135.858 9.504C136.541 9.13067 137.325 8.944 138.21 8.944C139.074 8.944 139.842 9.12533 140.514 9.488C141.186 9.85067 141.709 10.368 142.082 11.04C142.466 11.712 142.658 12.496 142.658 13.392ZM139.858 12.672C139.858 12.2027 139.698 11.8293 139.378 11.552C139.058 11.2747 138.658 11.136 138.178 11.136C137.719 11.136 137.33 11.2693 137.01 11.536C136.701 11.8027 136.509 12.1813 136.434 12.672H139.858ZM146.837 10.56C147.157 10.0693 147.557 9.68533 148.037 9.408C148.517 9.12 149.051 8.976 149.637 8.976V11.872H148.885C148.203 11.872 147.691 12.0213 147.349 12.32C147.008 12.608 146.837 13.12 146.837 13.856V18H144.101V9.072H146.837V10.56Z" fill="#4A304D"/>
</svg>
