<svg width="537" height="498" viewBox="0 0 537 498" fill="none" xmlns="http://www.w3.org/2000/svg">
<g clip-path="url(#clip0_2074_2065)">
<path d="M482.273 117.63C499.218 162.349 461.791 226.983 437.867 279.931C413.942 332.878 403.602 373.955 366.654 411.588C329.707 449.221 266.159 483.472 215.238 468.082C164.316 452.692 125.843 387.36 111.677 318.515C97.5112 249.671 107.571 177.287 146.708 127.509C185.846 77.7306 254.286 50.5104 324.157 49.2918C394.028 48.0732 465.35 72.9178 482.273 117.63Z" fill="#F7F7F7"/>
<path d="M397.854 475.839C474.124 475.839 535.953 413.986 535.953 337.685C535.953 261.384 474.124 199.53 397.854 199.53C321.583 199.53 259.754 261.384 259.754 337.685C259.754 413.986 321.583 475.839 397.854 475.839Z" stroke="#E5E5E5" stroke-width="3.06" stroke-linecap="round" stroke-linejoin="round"/>
<path d="M204.774 8.94092L1.4165 260.488L367.332 352.226L204.774 8.94092Z" stroke="#E5E5E5" stroke-width="4.13" stroke-linecap="round" stroke-linejoin="round"/>
<path d="M302.484 203.364C330.229 203.364 352.721 180.863 352.721 153.106C352.721 125.35 330.229 102.849 302.484 102.849C274.739 102.849 252.247 125.35 252.247 153.106C252.247 180.863 274.739 203.364 302.484 203.364Z" fill="#8CE08C"/>
<path d="M329.084 101.521C323.245 119.604 312.065 135.491 297.017 147.089C281.969 158.686 263.761 165.448 244.794 166.484" stroke="#2B7C63" stroke-width="6.62" stroke-linecap="round" stroke-linejoin="round"/>
<path d="M337.194 143.912C337.878 138.771 336.509 134.328 334.114 134.02C331.719 133.711 329.221 137.607 328.537 142.748C327.852 147.89 329.221 152.333 331.616 152.641C334.011 152.949 336.509 149.054 337.194 143.912Z" stroke="#2B7C63" stroke-width="6.62" stroke-linecap="round" stroke-linejoin="round"/>
<path d="M424.878 39.6185C434.916 39.6185 443.054 31.4776 443.054 21.4352C443.054 11.3929 434.916 3.25195 424.878 3.25195C414.84 3.25195 406.702 11.3929 406.702 21.4352C406.702 31.4776 414.84 39.6185 424.878 39.6185Z" stroke="#2B7C63" stroke-width="9.49" stroke-linecap="round" stroke-linejoin="round"/>
<path d="M138.346 81.4688L103.951 97.2901L134.849 119.177L138.346 81.4688Z" stroke="#A377A8" stroke-width="11.03" stroke-linecap="round" stroke-linejoin="round"/>
<path d="M490.772 112.55L468.918 119.084C463.24 120.782 460.013 126.763 461.71 132.443L468.241 154.306C469.938 159.986 475.917 163.215 481.595 161.517L503.449 154.983C509.127 153.285 512.354 147.304 510.657 141.624L504.126 119.761C502.429 114.081 496.45 110.852 490.772 112.55Z" fill="#C2C2C2"/>
<path d="M501.052 118.048C505.795 118.048 509.64 114.201 509.64 109.456C509.64 104.71 505.795 100.864 501.052 100.864C496.308 100.864 492.463 104.71 492.463 109.456C492.463 114.201 496.308 118.048 501.052 118.048Z" fill="#A377A8"/>
<path d="M480.692 128.789L477.086 143.981C476.951 144.554 476.969 145.153 477.139 145.717C477.308 146.281 477.623 146.791 478.051 147.195C478.48 147.599 479.007 147.884 479.579 148.02C480.152 148.157 480.751 148.14 481.315 147.972L496.268 143.501C496.836 143.337 497.35 143.025 497.758 142.598C498.167 142.17 498.455 141.643 498.594 141.068C498.733 140.493 498.718 139.892 498.55 139.325C498.382 138.758 498.067 138.246 497.637 137.84L486.29 127.125C485.862 126.715 485.333 126.425 484.756 126.285C484.18 126.145 483.577 126.161 483.008 126.33C482.439 126.499 481.926 126.815 481.519 127.247C481.112 127.679 480.827 128.211 480.692 128.789Z" fill="white"/>
<path d="M242.399 9.31053V33.5458C242.399 34.4623 242.641 35.3627 243.099 36.1566C243.557 36.9504 244.215 37.6097 245.009 38.0682C245.802 38.5268 246.702 38.7684 247.618 38.7689C248.534 38.7694 249.434 38.5287 250.228 38.0711L271.217 25.9397C272.01 25.482 272.668 24.8234 273.126 24.0302C273.584 23.237 273.825 22.3372 273.825 21.4213C273.825 20.5054 273.584 19.6056 273.126 18.8124C272.668 18.0192 272.01 17.3607 271.217 16.9029L250.228 4.79209C249.435 4.3347 248.535 4.09404 247.62 4.09424C246.704 4.09444 245.805 4.33549 245.011 4.79323C244.218 5.25096 243.56 5.90928 243.101 6.70215C242.643 7.49502 242.401 8.39455 242.399 9.31053V9.31053Z" stroke="#978460" stroke-width="10.07" stroke-linecap="round" stroke-linejoin="round"/>
<path fill-rule="evenodd" clip-rule="evenodd" d="M444.82 257.208C444.82 250.139 446.915 243.228 450.841 237.35C454.767 231.472 460.347 226.891 466.876 224.186C473.405 221.48 480.589 220.772 487.519 222.152C494.45 223.531 500.816 226.935 505.813 231.934C510.81 236.933 514.213 243.302 515.592 250.235C516.97 257.169 516.263 264.356 513.558 270.887C510.854 277.418 506.275 283.001 500.399 286.928C494.523 290.856 487.615 292.952 480.549 292.952C471.073 292.952 461.985 289.186 455.284 282.483C448.584 275.78 444.82 266.688 444.82 257.208Z" fill="#8CE08C"/>
<path fill-rule="evenodd" clip-rule="evenodd" d="M70.4868 257.208C70.4868 250.139 72.5823 243.228 76.5083 237.35C80.4343 231.472 86.0144 226.891 92.5431 224.186C99.0718 221.48 106.256 220.772 113.187 222.152C120.117 223.531 126.484 226.935 131.481 231.934C136.477 236.933 139.88 243.302 141.259 250.235C142.637 257.169 141.93 264.356 139.226 270.887C136.521 277.418 131.942 283.001 126.066 286.928C120.191 290.856 113.283 292.952 106.216 292.952C101.524 292.952 96.878 292.027 92.5431 290.231C88.2082 288.435 84.2695 285.802 80.9517 282.483C74.2511 275.78 70.4868 266.688 70.4868 257.208Z" fill="#8CE08C"/>
<path d="M177.907 254.614L287.983 498L409.467 257.873L177.907 254.614Z" fill="#A377A8"/>
<path d="M244.007 255.545C244.172 257.667 244.254 259.817 244.254 261.98C244.267 274.82 241.278 287.484 235.527 298.962C229.776 310.44 221.422 320.414 211.132 328.086" stroke="#978460" stroke-width="6.94" stroke-linecap="round" stroke-linejoin="round"/>
<path d="M239.792 391.447C255.714 388.079 272.275 389.493 287.396 395.511C302.517 401.53 315.523 411.884 324.78 425.274" stroke="#978460" stroke-width="6.94" stroke-linecap="round" stroke-linejoin="round"/>
<path d="M228.391 366.267C247.102 355.606 269.238 352.686 290.072 358.13C310.906 363.574 328.787 376.951 339.897 395.404" stroke="#978460" stroke-width="6.94" stroke-linecap="round" stroke-linejoin="round"/>
<path d="M383.229 309.746C370.157 295.299 362.639 276.678 362.015 257.202" stroke="#978460" stroke-width="6.94" stroke-linecap="round" stroke-linejoin="round"/>
<path d="M330.98 372.634L359.797 315.674" stroke="white" stroke-width="16.23" stroke-linecap="round" stroke-linejoin="round"/>
</g>
<defs>
<clipPath id="clip0_2074_2065">
<rect width="537" height="498" fill="white"/>
</clipPath>
</defs>
</svg>
