<svg width="646" height="531" viewBox="0 0 646 531" fill="none" xmlns="http://www.w3.org/2000/svg">
<g clip-path="url(#clip0_2073_1527)">
<path d="M534.101 101.976C562.914 160.108 524.365 250.071 497.001 331.75C469.637 413.429 453.598 486.809 408.316 514.155C363.161 541.523 288.713 522.983 228.714 488.652C168.863 454.328 123.326 404.219 88.4587 329.377C53.4568 254.514 29.2507 154.981 68.3294 94.4827C107.535 34.1118 210.033 12.804 309.507 15.3041C408.846 17.656 505.289 43.9782 534.101 101.976Z" fill="#F7F7F7"/>
<path d="M211.418 34.0557L1.46259 293.556L379.249 388.195L211.418 34.0557Z" stroke="#E5E5E5" stroke-width="4.13" stroke-linecap="round" stroke-linejoin="round"/>
<path fill-rule="evenodd" clip-rule="evenodd" d="M251.613 438.12C228.635 436.466 205.94 444 188.516 459.066C171.093 474.131 160.367 495.496 158.696 518.464L331.989 531C333.643 508.031 326.106 485.345 311.035 467.929C295.963 450.512 274.59 439.791 251.613 438.12Z" fill="#777777"/>
<path d="M302.936 171.041C329.806 171.041 351.588 149.268 351.588 122.408C351.588 95.5491 329.806 73.7754 302.936 73.7754C276.066 73.7754 254.284 95.5491 254.284 122.408C254.284 149.268 276.066 171.041 302.936 171.041Z" fill="#8CE08C"/>
<path d="M317.681 112.74C319.702 108.142 319.603 103.65 317.462 102.718C315.322 101.786 311.951 104.745 309.931 109.343C307.91 113.94 308.051 118.425 310.171 119.357C312.29 120.29 315.668 117.338 317.681 112.74Z" stroke="#2B7C63" stroke-width="6.21" stroke-linecap="round" stroke-linejoin="round"/>
<path d="M285.287 101.701C287.307 97.103 287.208 92.6112 285.067 91.6789C282.927 90.7467 279.556 93.7059 277.536 98.3036C275.515 102.901 275.621 107.386 277.762 108.325C279.903 109.265 283.273 106.263 285.287 101.701Z" stroke="#2B7C63" stroke-width="6.21" stroke-linecap="round" stroke-linejoin="round"/>
<path d="M329.382 60.8298C346.184 60.8298 359.805 47.2141 359.805 30.4183C359.805 13.6225 346.184 0.00683594 329.382 0.00683594C312.579 0.00683594 298.958 13.6225 298.958 30.4183C298.958 47.2141 312.579 60.8298 329.382 60.8298Z" fill="#2B7C63"/>
<path d="M163.034 230.459L244.18 493.837L399.788 263.858L163.034 230.459Z" fill="#A377A8"/>
<path d="M167.097 54.6357H22.9414V132.889H167.097V54.6357Z" fill="#978460"/>
<path fill-rule="evenodd" clip-rule="evenodd" d="M134.518 132.889L167.097 171.062V132.889H134.518Z" fill="#978460"/>
<path fill-rule="evenodd" clip-rule="evenodd" d="M449.458 61.7974L416.88 99.9635V61.7974H449.458Z" fill="#978460"/>
<path d="M417 61.9102L561.155 61.9102V9.31513L417 9.31513V61.9102Z" fill="#978460"/>
<path d="M221.769 421.085C240.299 410.263 261.381 404.575 282.842 404.608C289.725 404.606 296.596 405.185 303.381 406.338" stroke="#978460" stroke-width="6.94" stroke-linecap="round" stroke-linejoin="round"/>
<path d="M210.909 386.372C227.482 376.343 246.215 370.422 265.544 369.103C284.873 367.785 304.237 371.108 322.019 378.794" stroke="#978460" stroke-width="6.94" stroke-linecap="round" stroke-linejoin="round"/>
<path d="M346.056 343.241C320.967 338.968 297.857 326.916 279.996 308.791C262.136 290.667 250.429 267.387 246.533 242.246" stroke="#978460" stroke-width="6.94" stroke-linecap="round" stroke-linejoin="round"/>
<path fill-rule="evenodd" clip-rule="evenodd" d="M157.594 395.003C157.594 388.525 159.515 382.194 163.115 376.808C166.715 371.423 171.832 367.225 177.818 364.746C183.805 362.268 190.392 361.619 196.748 362.883C203.103 364.146 208.94 367.265 213.522 371.845C218.104 376.426 221.224 382.261 222.489 388.614C223.753 394.966 223.104 401.551 220.624 407.535C218.145 413.519 213.945 418.634 208.558 422.233C203.17 425.831 196.836 427.752 190.356 427.752C186.053 427.753 181.793 426.906 177.817 425.261C173.842 423.615 170.23 421.203 167.187 418.162C164.145 415.121 161.732 411.51 160.086 407.536C158.44 403.563 157.593 399.304 157.594 395.003Z" fill="#8CE08C"/>
<path d="M558.844 361.781C591.358 340.221 613.817 316.869 609.009 309.624C604.201 302.379 573.945 313.984 541.432 335.545C508.919 357.105 486.459 380.457 491.268 387.702C496.076 394.947 526.331 383.342 558.844 361.781Z" fill="#777777"/>
<path d="M559.099 360.283C558.138 324.017 600.149 212.372 636.422 183.719" stroke="#2B7C63" stroke-width="6.06" stroke-linecap="round" stroke-linejoin="round"/>
<path d="M623.055 198.056C627.273 198.056 630.692 186.521 630.692 172.292C630.692 158.062 627.273 146.527 623.055 146.527C618.837 146.527 615.417 158.062 615.417 172.292C615.417 186.521 618.837 198.056 623.055 198.056Z" fill="#2B7C63"/>
<path d="M651.615 196.558C664.87 191.371 674.369 183.983 672.832 180.056C671.294 176.13 659.302 177.152 646.047 182.34C632.791 187.527 623.292 194.915 624.83 198.841C626.368 202.768 638.36 201.745 651.615 196.558Z" fill="#2B7C63"/>
<path d="M638.779 215.111C652.772 212.501 663.489 207.024 662.715 202.88C661.941 198.735 649.97 197.49 635.977 200.101C621.983 202.711 611.267 208.187 612.04 212.332C612.814 216.477 624.785 217.721 638.779 215.111Z" fill="#2B7C63"/>
<path d="M626.66 236.661C640.888 236.224 652.317 232.453 652.188 228.238C652.058 224.024 640.419 220.962 626.191 221.399C611.963 221.836 600.533 225.606 600.663 229.821C600.793 234.035 612.432 237.098 626.66 236.661Z" fill="#2B7C63"/>
<path d="M617.982 254.952C632.217 254.952 643.756 251.534 643.756 247.317C643.756 243.101 632.217 239.683 617.982 239.683C603.747 239.683 592.207 243.101 592.207 247.317C592.207 251.534 603.747 254.952 617.982 254.952Z" fill="#2B7C63"/>
<path d="M608.217 275.44C622.452 275.44 633.992 272.022 633.992 267.806C633.992 263.589 622.452 260.171 608.217 260.171C593.983 260.171 582.443 263.589 582.443 267.806C582.443 272.022 593.983 275.44 608.217 275.44Z" fill="#2B7C63"/>
<path d="M611.555 212.899C615.701 212.125 616.946 200.159 614.335 186.171C611.724 172.183 606.245 161.471 602.099 162.245C597.952 163.018 596.707 174.984 599.319 188.972C601.93 202.96 607.408 213.672 611.555 212.899Z" fill="#2B7C63"/>
<path d="M599.994 231.569C603.922 230.032 602.899 218.045 597.71 204.795C592.521 191.545 585.13 182.05 581.202 183.587C577.274 185.124 578.296 197.111 583.486 210.361C588.675 223.611 596.066 233.107 599.994 231.569Z" fill="#2B7C63"/>
<path d="M592.225 249.565C595.657 247.113 591.73 235.741 583.454 224.164C575.178 212.587 565.686 205.189 562.254 207.641C558.822 210.092 562.749 221.465 571.026 233.042C579.302 244.619 588.794 252.016 592.225 249.565Z" fill="#2B7C63"/>
<path d="M583.587 269.18C586.479 266.111 580.426 255.713 570.067 245.954C559.707 236.195 548.963 230.772 546.07 233.841C543.177 236.909 549.231 247.308 559.59 257.067C569.95 266.825 580.694 272.249 583.587 269.18Z" fill="#2B7C63"/>
<path d="M554.075 362.197C551.511 334.583 502.251 268.668 469.142 256.372" stroke="#978460" stroke-width="6.94" stroke-linecap="round" stroke-linejoin="round"/>
<path fill-rule="evenodd" clip-rule="evenodd" d="M475.918 249.754L498.746 217.308L459.222 213.77L475.918 249.754Z" fill="#978460"/>
<path fill-rule="evenodd" clip-rule="evenodd" d="M502.752 269.19L540.298 256.357L510.404 230.268L502.752 269.19Z" fill="#978460"/>
<path fill-rule="evenodd" clip-rule="evenodd" d="M471.128 316.714L484.326 279.304L445.318 286.578L471.128 316.714Z" fill="#978460"/>
<path fill-rule="evenodd" clip-rule="evenodd" d="M248.285 178.386C248.292 171.911 250.219 165.582 253.824 160.201C257.428 154.82 262.547 150.628 268.534 148.155C274.521 145.682 281.108 145.038 287.461 146.306C293.813 147.574 299.648 150.695 304.226 155.277C308.805 159.858 311.921 165.694 313.183 172.045C314.444 178.397 313.793 184.98 311.312 190.962C308.832 196.944 304.632 202.057 299.245 205.654C293.858 209.251 287.526 211.171 281.047 211.171C276.742 211.171 272.479 210.322 268.502 208.674C264.524 207.026 260.911 204.611 257.868 201.566C254.826 198.521 252.413 194.907 250.769 190.93C249.124 186.952 248.28 182.69 248.285 178.386Z" fill="#76CE76"/>
<path d="M274.003 267.41L216.936 259.359" stroke="white" stroke-width="16.23" stroke-linecap="round" stroke-linejoin="round"/>
</g>
<defs>
<clipPath id="clip0_2073_1527">
<rect width="673" height="531" fill="white"/>
</clipPath>
</defs>
</svg>
