<svg width="762" height="664" viewBox="0 0 762 664" fill="none" xmlns="http://www.w3.org/2000/svg">
<path d="M552.53 118.684C630.237 180.279 675.113 292.164 659.422 389.23C643.731 486.296 567.805 568.503 488.901 593.193C409.996 617.883 328.335 585.096 259.334 553.095C190.334 521.095 134.172 489.969 85.4706 425.958C36.7694 361.947 -4.15571 265.107 25.1571 194.446C54.4699 123.786 153.859 79.1747 258.918 62.5481C363.978 45.9215 474.824 57.0986 552.53 118.684Z" fill="#F7F7F7"/>
<path d="M552.53 118.684C630.237 180.279 675.113 292.164 659.422 389.23C643.731 486.296 567.805 568.503 488.901 593.193C409.996 617.883 328.335 585.096 259.334 553.095C190.334 521.095 134.172 489.969 85.4706 425.958C36.7694 361.947 -4.15571 265.107 25.1571 194.446C54.4699 123.786 153.859 79.1747 258.918 62.5481C363.978 45.9215 474.824 57.0986 552.53 118.684Z" fill="#F7F7F7"/>
<path d="M595.707 557.06C685.623 543.828 747.769 460.085 734.514 370.014C721.26 279.942 637.625 217.651 547.709 230.883C457.794 244.114 395.648 327.858 408.902 417.929C422.156 508 505.792 570.291 595.707 557.06Z" stroke="#E5E5E5" stroke-width="2.47" stroke-linecap="round" stroke-linejoin="round"/>
<path d="M181.395 167.443L1.55608 472.211L411.909 513.347L181.395 167.443Z" stroke="#E5E5E5" stroke-width="3.06" stroke-linecap="round" stroke-linejoin="round"/>
<path d="M294.047 310.158C404.75 297.655 441.559 503.775 431.758 526.873C421.958 549.97 262.132 565.854 236.925 541.533C211.718 517.211 211.585 319.417 294.047 310.158Z" fill="#B78DBB"/>
<path d="M289.716 355.151L363.918 435.274" stroke="white" stroke-width="8" stroke-linecap="round" stroke-linejoin="round"/>
<path d="M319.009 272.765C349.191 268.324 370.052 240.214 365.602 209.98C361.153 179.746 333.08 158.837 302.898 163.278C272.716 167.719 251.856 195.829 256.305 226.063C260.754 256.297 288.828 277.206 319.009 272.765Z" fill="#8CE08C"/>
<path d="M306.478 213.153C306.404 207.443 304.194 202.835 301.532 202.869C298.871 202.902 296.787 207.558 296.861 213.268C296.935 218.978 299.156 223.584 301.807 223.552C304.459 223.52 306.558 218.903 306.478 213.153Z" stroke="#2B7C63" stroke-width="4.93" stroke-linecap="round" stroke-linejoin="round"/>
<path d="M256.854 88.4469L276.29 170.191L195.905 146.15L256.854 88.4469Z" fill="#2B7C63"/>
<path d="M453.568 108.916L420.233 113.78C411.572 115.044 405.577 123.102 406.842 131.778L411.715 165.171C412.981 173.847 421.028 179.856 429.689 178.592L463.025 173.729C471.686 172.465 477.681 164.407 476.415 155.731L471.543 122.338C470.277 113.662 462.229 107.653 453.568 108.916Z" fill="#C2C2C2"/>
<path d="M471.113 119.213C478.044 118.193 482.834 111.738 481.812 104.794C480.791 97.8515 474.344 93.0498 467.413 94.0698C460.482 95.0897 455.691 101.545 456.713 108.488C457.735 115.431 464.182 120.233 471.113 119.213Z" fill="#B78DBB"/>
<path d="M435.369 130.552L426.849 152.007C426.526 152.817 426.423 153.698 426.548 154.561C426.674 155.424 427.024 156.239 427.564 156.923C428.104 157.607 428.815 158.137 429.624 158.459C430.433 158.781 431.313 158.883 432.174 158.756L454.973 155.401C455.834 155.274 456.646 154.923 457.328 154.383C458.01 153.843 458.538 153.133 458.86 152.324C459.181 151.515 459.285 150.635 459.161 149.773C459.036 148.911 458.687 148.097 458.15 147.412L443.86 129.312C443.321 128.628 442.612 128.098 441.804 127.776C440.996 127.453 440.117 127.349 439.256 127.475C438.395 127.601 437.583 127.951 436.9 128.491C436.218 129.031 435.69 129.742 435.369 130.552Z" fill="white"/>
<path fill-rule="evenodd" clip-rule="evenodd" d="M308.27 406.814C307.503 401.598 308.296 396.271 310.551 391.508C312.806 386.745 316.421 382.759 320.938 380.055C325.455 377.351 330.672 376.049 335.93 376.315C341.187 376.582 346.248 378.403 350.473 381.55C354.698 384.697 357.897 389.027 359.666 393.994C361.435 398.961 361.694 404.341 360.41 409.453C359.126 414.566 356.358 419.182 352.455 422.717C348.551 426.252 343.688 428.548 338.481 429.315C331.498 430.342 324.392 428.549 318.726 424.329C313.061 420.11 309.3 413.809 308.27 406.814Z" fill="#8CE08C"/>
<path d="M448.79 480.228L366.003 507.761L377.429 377.131L460.216 349.598L448.79 480.228Z" fill="#C2C2C2"/>
<path d="M453.313 482.427L370.526 509.96L381.952 379.33L464.739 351.797L453.313 482.427Z" fill="#777777"/>
<path d="M383.731 375.313C383.435 374.646 383.232 373.943 383.127 373.222C382.894 371.637 383.135 370.018 383.82 368.571C384.505 367.124 385.603 365.913 386.976 365.091C388.348 364.27 389.934 363.874 391.531 363.955C393.128 364.036 394.666 364.589 395.95 365.546C397.233 366.502 398.205 367.817 398.743 369.326C399.28 370.836 399.359 372.47 398.969 374.024C398.579 375.577 397.738 376.979 396.552 378.054C395.366 379.128 393.888 379.825 392.306 380.058" stroke="#978460" stroke-width="5.14" stroke-linecap="round" stroke-linejoin="round"/>
<path d="M407.161 367.496C406.873 366.827 406.674 366.124 406.567 365.403C406.334 363.818 406.575 362.2 407.26 360.753C407.945 359.306 409.043 358.095 410.416 357.273C411.788 356.451 413.374 356.056 414.971 356.137C416.568 356.218 418.106 356.771 419.39 357.727C420.673 358.683 421.645 359.999 422.183 361.508C422.72 363.017 422.799 364.652 422.409 366.205C422.019 367.759 421.178 369.161 419.992 370.235C418.806 371.309 417.328 372.007 415.746 372.24" stroke="#978460" stroke-width="5.14" stroke-linecap="round" stroke-linejoin="round"/>
<path d="M428.382 360.565C428.086 359.899 427.883 359.195 427.778 358.474C427.545 356.889 427.786 355.271 428.471 353.824C429.156 352.376 430.255 351.165 431.627 350.344C433 349.522 434.585 349.127 436.182 349.208C437.779 349.288 439.317 349.842 440.601 350.798C441.885 351.754 442.857 353.07 443.394 354.579C443.931 356.088 444.01 357.723 443.62 359.276C443.23 360.829 442.389 362.232 441.203 363.306C440.017 364.38 438.539 365.078 436.957 365.311" stroke="#978460" stroke-width="5.14" stroke-linecap="round" stroke-linejoin="round"/>
<path d="M450.283 352.983C449.595 351.433 449.41 349.706 449.754 348.045C450.099 346.384 450.955 344.874 452.202 343.727C453.449 342.581 455.024 341.855 456.705 341.653C458.387 341.451 460.089 341.783 461.572 342.602C463.056 343.421 464.245 344.686 464.973 346.218C465.701 347.749 465.93 349.471 465.629 351.14C465.328 352.809 464.511 354.341 463.294 355.52C462.077 356.698 460.521 357.465 458.845 357.71" stroke="#978460" stroke-width="5.14" stroke-linecap="round" stroke-linejoin="round"/>
<path fill-rule="evenodd" clip-rule="evenodd" d="M441.769 424.461C441.001 419.244 441.795 413.918 444.05 409.155C446.305 404.392 449.92 400.406 454.437 397.702C458.954 394.998 464.171 393.696 469.428 393.962C474.686 394.229 479.747 396.05 483.972 399.197C488.197 402.344 491.396 406.674 493.165 411.641C494.934 416.608 495.192 421.988 493.909 427.1C492.625 432.213 489.857 436.829 485.953 440.364C482.05 443.899 477.187 446.195 471.98 446.962C464.997 447.989 457.891 446.196 452.225 441.976C446.56 437.756 442.798 431.456 441.769 424.461Z" fill="#8CE08C"/>
<path d="M606.654 140.675L531.575 151.723C528.637 152.155 526.606 154.892 527.04 157.835L540.825 251.515C541.258 254.458 543.991 256.493 546.929 256.061L622.007 245.013C624.945 244.581 626.976 241.844 626.543 238.901L612.758 145.221C612.325 142.278 609.592 140.243 606.654 140.675Z" fill="#C2C2C2"/>
<path d="M545.66 174.191C549.062 173.69 551.413 170.521 550.912 167.114C550.41 163.706 547.246 161.349 543.844 161.849C540.442 162.35 538.091 165.519 538.592 168.926C539.094 172.334 542.258 174.691 545.66 174.191Z" fill="white"/>
<path d="M559.151 165.902L604.9 159.17" stroke="white" stroke-width="2.48" stroke-linecap="round" stroke-linejoin="round"/>
<path d="M549.385 199.504C552.787 199.003 555.138 195.835 554.637 192.427C554.135 189.019 550.971 186.662 547.569 187.163C544.167 187.664 541.815 190.832 542.317 194.24C542.818 197.648 545.983 200.005 549.385 199.504Z" fill="white"/>
<path d="M562.876 191.215L608.625 184.483" stroke="white" stroke-width="2.48" stroke-linecap="round" stroke-linejoin="round"/>
<path d="M553.108 224.807C556.51 224.306 558.862 221.138 558.36 217.73C557.859 214.322 554.694 211.965 551.292 212.466C547.89 212.966 545.539 216.135 546.04 219.543C546.542 222.951 549.706 225.307 553.108 224.807Z" fill="white"/>
<path d="M566.6 216.518L612.349 209.786" stroke="white" stroke-width="2.48" stroke-linecap="round" stroke-linejoin="round"/>
</svg>
